<?xml version="1.0" standalone="no"?>
<!DOCTYPE svg PUBLIC "-//W3C//DTD SVG 20010904//EN"
 "http://www.w3.org/TR/2001/REC-SVG-20010904/DTD/svg10.dtd">
<svg version="1.0" xmlns="http://www.w3.org/2000/svg"
 width="250.000000pt" height="125.000000pt" viewBox="0 0 250.000000 125.000000"
 preserveAspectRatio="xMidYMid meet">
<metadata>
Created by potrace 1.13, written by Peter Selinger 2001-2015
</metadata>
<g transform="translate(0.000000,125.000000) scale(0.100000,-0.100000)"
fill="#000000" stroke="none">
<path d="M0 1040 l0 -210 1250 0 1250 0 0 210 0 210 -1250 0 -1250 0 0 -210z
m355 145 c-131 -46 -131 -224 0 -270 l40 -14 -45 -1 c-54 0 -102 26 -131 72
-26 43 -23 136 7 169 34 39 77 59 124 59 l45 -1 -40 -14z"/>
<path d="M0 410 c0 -7 423 -10 1250 -10 827 0 1250 3 1250 10 0 7 -423 10
-1250 10 -827 0 -1250 -3 -1250 -10z"/>
</g>
</svg>
